<mxfile host="app.diagrams.net" agent="Mozilla/5.0 (Macintosh; Intel Mac OS X 10_15_7) AppleWebKit/537.36 (KHTML, like Gecko) Chrome/133.0.0.0 Safari/537.36" version="26.0.16">
  <diagram name="Page-1" id="CN8KXlb1iRXuwvM5C5oC">
    <mxGraphModel dx="2762" dy="940" grid="1" gridSize="10" guides="1" tooltips="1" connect="1" arrows="1" fold="1" page="1" pageScale="1" pageWidth="850" pageHeight="1100" math="0" shadow="0">
      <root>
        <mxCell id="0" />
        <mxCell id="1" parent="0" />
        <mxCell id="OsBLbfXyoSN7c7r9XEhY-1" value="DQ_SerialManipulatorDynamicsSolver" style="swimlane;fontStyle=2;align=center;verticalAlign=top;childLayout=stackLayout;horizontal=1;startSize=26;horizontalStack=0;resizeParent=1;resizeLast=0;collapsible=1;marginBottom=0;rounded=0;shadow=0;strokeWidth=1;fillColor=#d5e8d4;gradientColor=#97d077;strokeColor=#82b366;" vertex="1" parent="1">
          <mxGeometry x="1000" y="80" width="290" height="190" as="geometry">
            <mxRectangle x="230" y="140" width="160" height="26" as="alternateBounds" />
          </mxGeometry>
        </mxCell>
        <mxCell id="OsBLbfXyoSN7c7r9XEhY-82" value="# robot" style="text;align=left;verticalAlign=top;spacingLeft=4;spacingRight=4;overflow=hidden;rotatable=0;points=[[0,0.5],[1,0.5]];portConstraint=eastwest;fontFamily=Verdana;fontStyle=0;spacingTop=0;" vertex="1" parent="OsBLbfXyoSN7c7r9XEhY-1">
          <mxGeometry y="26" width="290" height="26" as="geometry" />
        </mxCell>
        <mxCell id="OsBLbfXyoSN7c7r9XEhY-2" value="" style="line;html=1;strokeWidth=1;align=left;verticalAlign=middle;spacingTop=-1;spacingLeft=3;spacingRight=3;rotatable=0;labelPosition=right;points=[];portConstraint=eastwest;" vertex="1" parent="OsBLbfXyoSN7c7r9XEhY-1">
          <mxGeometry y="52" width="290" height="8" as="geometry" />
        </mxCell>
        <mxCell id="OsBLbfXyoSN7c7r9XEhY-14" value="compute_torques(q, q_dot, q_dot_dot);Â &#xa;" style="text;align=left;verticalAlign=top;spacingLeft=4;spacingRight=4;overflow=hidden;rotatable=0;points=[[0,0.5],[1,0.5]];portConstraint=eastwest;fontFamily=Verdana;fontStyle=2;spacingTop=0;" vertex="1" parent="OsBLbfXyoSN7c7r9XEhY-1">
          <mxGeometry y="60" width="290" height="26" as="geometry" />
        </mxCell>
        <mxCell id="OsBLbfXyoSN7c7r9XEhY-15" value="euler_lagrange(q, q_dot)" style="text;align=left;verticalAlign=top;spacingLeft=4;spacingRight=4;overflow=hidden;rotatable=0;points=[[0,0.5],[1,0.5]];portConstraint=eastwest;fontFamily=Verdana;fontStyle=2;spacingTop=0;" vertex="1" parent="OsBLbfXyoSN7c7r9XEhY-1">
          <mxGeometry y="86" width="290" height="26" as="geometry" />
        </mxCell>
        <mxCell id="OsBLbfXyoSN7c7r9XEhY-16" value="get_inertia_matrix()" style="text;align=left;verticalAlign=top;spacingLeft=4;spacingRight=4;overflow=hidden;rotatable=0;points=[[0,0.5],[1,0.5]];portConstraint=eastwest;fontFamily=Verdana;fontStyle=2;spacingTop=0;" vertex="1" parent="OsBLbfXyoSN7c7r9XEhY-1">
          <mxGeometry y="112" width="290" height="26" as="geometry" />
        </mxCell>
        <mxCell id="OsBLbfXyoSN7c7r9XEhY-18" value="get_coriolis_vector()" style="text;align=left;verticalAlign=top;spacingLeft=4;spacingRight=4;overflow=hidden;rotatable=0;points=[[0,0.5],[1,0.5]];portConstraint=eastwest;fontFamily=Verdana;fontStyle=2;spacingTop=0;" vertex="1" parent="OsBLbfXyoSN7c7r9XEhY-1">
          <mxGeometry y="138" width="290" height="26" as="geometry" />
        </mxCell>
        <mxCell id="OsBLbfXyoSN7c7r9XEhY-17" value="get_gravitational_forces_vector()" style="text;align=left;verticalAlign=top;spacingLeft=4;spacingRight=4;overflow=hidden;rotatable=0;points=[[0,0.5],[1,0.5]];portConstraint=eastwest;fontFamily=Verdana;fontStyle=2;spacingTop=0;" vertex="1" parent="OsBLbfXyoSN7c7r9XEhY-1">
          <mxGeometry y="164" width="290" height="26" as="geometry" />
        </mxCell>
        <mxCell id="OsBLbfXyoSN7c7r9XEhY-27" style="edgeStyle=orthogonalEdgeStyle;rounded=0;orthogonalLoop=1;jettySize=auto;html=1;endArrow=block;endFill=0;" edge="1" parent="1" source="OsBLbfXyoSN7c7r9XEhY-20">
          <mxGeometry relative="1" as="geometry">
            <mxPoint x="1050" y="270" as="targetPoint" />
          </mxGeometry>
        </mxCell>
        <mxCell id="OsBLbfXyoSN7c7r9XEhY-33" style="edgeStyle=orthogonalEdgeStyle;rounded=0;orthogonalLoop=1;jettySize=auto;html=1;endArrow=block;endFill=0;" edge="1" parent="1" source="OsBLbfXyoSN7c7r9XEhY-20">
          <mxGeometry relative="1" as="geometry">
            <mxPoint x="800" y="270" as="targetPoint" />
          </mxGeometry>
        </mxCell>
        <mxCell id="OsBLbfXyoSN7c7r9XEhY-20" value="DQ_SerialManipulatorDynamicsGaussPrincipleSolver" style="swimlane;fontStyle=0;align=center;verticalAlign=top;childLayout=stackLayout;horizontal=1;startSize=26;horizontalStack=0;resizeParent=1;resizeLast=0;collapsible=1;marginBottom=0;rounded=0;shadow=0;strokeWidth=1;fillColor=#d5e8d4;gradientColor=#97d077;strokeColor=#82b366;" vertex="1" parent="1">
          <mxGeometry x="700" y="340" width="400" height="80" as="geometry">
            <mxRectangle x="230" y="140" width="160" height="26" as="alternateBounds" />
          </mxGeometry>
        </mxCell>
        <mxCell id="OsBLbfXyoSN7c7r9XEhY-21" value="" style="line;html=1;strokeWidth=1;align=left;verticalAlign=middle;spacingTop=-1;spacingLeft=3;spacingRight=3;rotatable=0;labelPosition=right;points=[];portConstraint=eastwest;" vertex="1" parent="OsBLbfXyoSN7c7r9XEhY-20">
          <mxGeometry y="26" width="400" height="8" as="geometry" />
        </mxCell>
        <mxCell id="OsBLbfXyoSN7c7r9XEhY-81" value="DQ_SerialManipulatorDynamicsGaussPrincipleSolver(robot)" style="text;align=left;verticalAlign=top;spacingLeft=4;spacingRight=4;overflow=hidden;rotatable=0;points=[[0,0.5],[1,0.5]];portConstraint=eastwest;fontFamily=Verdana;fontStyle=0;spacingTop=0;" vertex="1" parent="OsBLbfXyoSN7c7r9XEhY-20">
          <mxGeometry y="34" width="400" height="26" as="geometry" />
        </mxCell>
        <mxCell id="OsBLbfXyoSN7c7r9XEhY-30" style="edgeStyle=orthogonalEdgeStyle;rounded=0;orthogonalLoop=1;jettySize=auto;html=1;entryX=0.75;entryY=1;entryDx=0;entryDy=0;endArrow=block;endFill=0;" edge="1" parent="1" source="OsBLbfXyoSN7c7r9XEhY-28" target="OsBLbfXyoSN7c7r9XEhY-1">
          <mxGeometry relative="1" as="geometry" />
        </mxCell>
        <mxCell id="OsBLbfXyoSN7c7r9XEhY-36" style="edgeStyle=orthogonalEdgeStyle;rounded=0;orthogonalLoop=1;jettySize=auto;html=1;endArrow=block;endFill=0;" edge="1" parent="1" source="OsBLbfXyoSN7c7r9XEhY-28">
          <mxGeometry relative="1" as="geometry">
            <mxPoint x="1480" y="270" as="targetPoint" />
          </mxGeometry>
        </mxCell>
        <mxCell id="OsBLbfXyoSN7c7r9XEhY-28" value="DQ_SerialManipulatorDynamicsNewtonEulerSolver" style="swimlane;fontStyle=0;align=center;verticalAlign=top;childLayout=stackLayout;horizontal=1;startSize=26;horizontalStack=0;resizeParent=1;resizeLast=0;collapsible=1;marginBottom=0;rounded=0;shadow=0;strokeWidth=1;fillColor=#d5e8d4;gradientColor=#97d077;strokeColor=#82b366;" vertex="1" parent="1">
          <mxGeometry x="1210" y="340" width="320" height="80" as="geometry">
            <mxRectangle x="230" y="140" width="160" height="26" as="alternateBounds" />
          </mxGeometry>
        </mxCell>
        <mxCell id="OsBLbfXyoSN7c7r9XEhY-29" value="" style="line;html=1;strokeWidth=1;align=left;verticalAlign=middle;spacingTop=-1;spacingLeft=3;spacingRight=3;rotatable=0;labelPosition=right;points=[];portConstraint=eastwest;" vertex="1" parent="OsBLbfXyoSN7c7r9XEhY-28">
          <mxGeometry y="26" width="320" height="8" as="geometry" />
        </mxCell>
        <mxCell id="OsBLbfXyoSN7c7r9XEhY-31" value="DQ_GaussPrinciple" style="swimlane;fontStyle=0;align=center;verticalAlign=top;childLayout=stackLayout;horizontal=1;startSize=26;horizontalStack=0;resizeParent=1;resizeLast=0;collapsible=1;marginBottom=0;rounded=0;shadow=0;strokeWidth=1;fillColor=#d5e8d4;gradientColor=#97d077;strokeColor=#82b366;" vertex="1" parent="1">
          <mxGeometry x="720" y="190" width="150" height="80" as="geometry">
            <mxRectangle x="230" y="140" width="160" height="26" as="alternateBounds" />
          </mxGeometry>
        </mxCell>
        <mxCell id="OsBLbfXyoSN7c7r9XEhY-32" value="" style="line;html=1;strokeWidth=1;align=left;verticalAlign=middle;spacingTop=-1;spacingLeft=3;spacingRight=3;rotatable=0;labelPosition=right;points=[];portConstraint=eastwest;" vertex="1" parent="OsBLbfXyoSN7c7r9XEhY-31">
          <mxGeometry y="26" width="150" height="8" as="geometry" />
        </mxCell>
        <mxCell id="OsBLbfXyoSN7c7r9XEhY-34" value="DQ_NewtonEuler" style="swimlane;fontStyle=0;align=center;verticalAlign=top;childLayout=stackLayout;horizontal=1;startSize=26;horizontalStack=0;resizeParent=1;resizeLast=0;collapsible=1;marginBottom=0;rounded=0;shadow=0;strokeWidth=1;fillColor=#d5e8d4;gradientColor=#97d077;strokeColor=#82b366;" vertex="1" parent="1">
          <mxGeometry x="1390" y="190" width="150" height="80" as="geometry">
            <mxRectangle x="230" y="140" width="160" height="26" as="alternateBounds" />
          </mxGeometry>
        </mxCell>
        <mxCell id="OsBLbfXyoSN7c7r9XEhY-35" value="" style="line;html=1;strokeWidth=1;align=left;verticalAlign=middle;spacingTop=-1;spacingLeft=3;spacingRight=3;rotatable=0;labelPosition=right;points=[];portConstraint=eastwest;" vertex="1" parent="OsBLbfXyoSN7c7r9XEhY-34">
          <mxGeometry y="26" width="150" height="8" as="geometry" />
        </mxCell>
        <mxCell id="OsBLbfXyoSN7c7r9XEhY-37" value="DQ_Dynamics" style="swimlane;fontStyle=2;align=center;verticalAlign=top;childLayout=stackLayout;horizontal=1;startSize=26;horizontalStack=0;resizeParent=1;resizeLast=0;collapsible=1;marginBottom=0;rounded=0;shadow=0;strokeWidth=1;fillColor=#d5e8d4;gradientColor=#97d077;strokeColor=#82b366;" vertex="1" parent="1">
          <mxGeometry x="120" y="100" width="430" height="320" as="geometry">
            <mxRectangle x="230" y="140" width="160" height="26" as="alternateBounds" />
          </mxGeometry>
        </mxCell>
        <mxCell id="OsBLbfXyoSN7c7r9XEhY-47" value="# gravitational_acceleration_Â " style="text;align=left;verticalAlign=top;spacingLeft=4;spacingRight=4;overflow=hidden;rotatable=0;points=[[0,0.5],[1,0.5]];portConstraint=eastwest;fontFamily=Verdana;fontStyle=0;spacingTop=0;" vertex="1" parent="OsBLbfXyoSN7c7r9XEhY-37">
          <mxGeometry y="26" width="430" height="26" as="geometry" />
        </mxCell>
        <mxCell id="OsBLbfXyoSN7c7r9XEhY-48" value="#Â inertia_tensors_" style="text;align=left;verticalAlign=top;spacingLeft=4;spacingRight=4;overflow=hidden;rotatable=0;points=[[0,0.5],[1,0.5]];portConstraint=eastwest;fontFamily=Verdana;fontStyle=0;spacingTop=0;" vertex="1" parent="OsBLbfXyoSN7c7r9XEhY-37">
          <mxGeometry y="52" width="430" height="26" as="geometry" />
        </mxCell>
        <mxCell id="OsBLbfXyoSN7c7r9XEhY-49" value="#Â center_of_masses_" style="text;align=left;verticalAlign=top;spacingLeft=4;spacingRight=4;overflow=hidden;rotatable=0;points=[[0,0.5],[1,0.5]];portConstraint=eastwest;fontFamily=Verdana;fontStyle=0;spacingTop=0;" vertex="1" parent="OsBLbfXyoSN7c7r9XEhY-37">
          <mxGeometry y="78" width="430" height="26" as="geometry" />
        </mxCell>
        <mxCell id="OsBLbfXyoSN7c7r9XEhY-50" value="#Â masses_" style="text;align=left;verticalAlign=top;spacingLeft=4;spacingRight=4;overflow=hidden;rotatable=0;points=[[0,0.5],[1,0.5]];portConstraint=eastwest;fontFamily=Verdana;fontStyle=0;spacingTop=0;" vertex="1" parent="OsBLbfXyoSN7c7r9XEhY-37">
          <mxGeometry y="104" width="430" height="26" as="geometry" />
        </mxCell>
        <mxCell id="OsBLbfXyoSN7c7r9XEhY-38" value="" style="line;html=1;strokeWidth=1;align=left;verticalAlign=middle;spacingTop=-1;spacingLeft=3;spacingRight=3;rotatable=0;labelPosition=right;points=[];portConstraint=eastwest;" vertex="1" parent="OsBLbfXyoSN7c7r9XEhY-37">
          <mxGeometry y="130" width="430" height="8" as="geometry" />
        </mxCell>
        <mxCell id="OsBLbfXyoSN7c7r9XEhY-39" value="+ get_gravitational_acceleration()" style="text;align=left;verticalAlign=top;spacingLeft=4;spacingRight=4;overflow=hidden;rotatable=0;points=[[0,0.5],[1,0.5]];portConstraint=eastwest;fontFamily=Verdana;fontStyle=0;spacingTop=0;" vertex="1" parent="OsBLbfXyoSN7c7r9XEhY-37">
          <mxGeometry y="138" width="430" height="26" as="geometry" />
        </mxCell>
        <mxCell id="OsBLbfXyoSN7c7r9XEhY-40" value="+ set_gravitational_acceleration(gravitational_acceleration)" style="text;align=left;verticalAlign=top;spacingLeft=4;spacingRight=4;overflow=hidden;rotatable=0;points=[[0,0.5],[1,0.5]];portConstraint=eastwest;fontFamily=Verdana;fontStyle=0;spacingTop=0;" vertex="1" parent="OsBLbfXyoSN7c7r9XEhY-37">
          <mxGeometry y="164" width="430" height="26" as="geometry" />
        </mxCell>
        <mxCell id="OsBLbfXyoSN7c7r9XEhY-41" value="+ get_inertia_tensors()" style="text;align=left;verticalAlign=top;spacingLeft=4;spacingRight=4;overflow=hidden;rotatable=0;points=[[0,0.5],[1,0.5]];portConstraint=eastwest;fontFamily=Verdana;fontStyle=0;spacingTop=0;" vertex="1" parent="OsBLbfXyoSN7c7r9XEhY-37">
          <mxGeometry y="190" width="430" height="26" as="geometry" />
        </mxCell>
        <mxCell id="OsBLbfXyoSN7c7r9XEhY-42" value="+ get_center_of_masses()" style="text;align=left;verticalAlign=top;spacingLeft=4;spacingRight=4;overflow=hidden;rotatable=0;points=[[0,0.5],[1,0.5]];portConstraint=eastwest;fontFamily=Verdana;fontStyle=0;spacingTop=0;" vertex="1" parent="OsBLbfXyoSN7c7r9XEhY-37">
          <mxGeometry y="216" width="430" height="26" as="geometry" />
        </mxCell>
        <mxCell id="OsBLbfXyoSN7c7r9XEhY-43" value="+ get_masses()" style="text;align=left;verticalAlign=top;spacingLeft=4;spacingRight=4;overflow=hidden;rotatable=0;points=[[0,0.5],[1,0.5]];portConstraint=eastwest;fontFamily=Verdana;fontStyle=0;spacingTop=0;" vertex="1" parent="OsBLbfXyoSN7c7r9XEhY-37">
          <mxGeometry y="242" width="430" height="26" as="geometry" />
        </mxCell>
        <mxCell id="OsBLbfXyoSN7c7r9XEhY-44" value="+ set_inertial_parameters(inertia_tensors, center_of_masses, masses)" style="text;align=left;verticalAlign=top;spacingLeft=4;spacingRight=4;overflow=hidden;rotatable=0;points=[[0,0.5],[1,0.5]];portConstraint=eastwest;fontFamily=Verdana;fontStyle=2;spacingTop=0;" vertex="1" parent="OsBLbfXyoSN7c7r9XEhY-37">
          <mxGeometry y="268" width="430" height="26" as="geometry" />
        </mxCell>
        <mxCell id="OsBLbfXyoSN7c7r9XEhY-51" value="DQ_Kinematics" style="swimlane;fontStyle=2;align=center;verticalAlign=top;childLayout=stackLayout;horizontal=1;startSize=26;horizontalStack=0;resizeParent=1;resizeLast=0;collapsible=1;marginBottom=0;rounded=0;shadow=0;strokeWidth=1;fillColor=#d5e8d4;gradientColor=#97d077;strokeColor=#82b366;" vertex="1" parent="1">
          <mxGeometry x="-150" y="100" width="220" height="320" as="geometry">
            <mxRectangle x="230" y="140" width="160" height="26" as="alternateBounds" />
          </mxGeometry>
        </mxCell>
        <mxCell id="OsBLbfXyoSN7c7r9XEhY-56" value="" style="line;html=1;strokeWidth=1;align=left;verticalAlign=middle;spacingTop=-1;spacingLeft=3;spacingRight=3;rotatable=0;labelPosition=right;points=[];portConstraint=eastwest;" vertex="1" parent="OsBLbfXyoSN7c7r9XEhY-51">
          <mxGeometry y="26" width="220" height="8" as="geometry" />
        </mxCell>
        <mxCell id="OsBLbfXyoSN7c7r9XEhY-75" style="edgeStyle=orthogonalEdgeStyle;rounded=0;orthogonalLoop=1;jettySize=auto;html=1;endArrow=block;endFill=0;" edge="1" parent="1" source="OsBLbfXyoSN7c7r9XEhY-63">
          <mxGeometry relative="1" as="geometry">
            <mxPoint x="240" y="420" as="targetPoint" />
          </mxGeometry>
        </mxCell>
        <mxCell id="OsBLbfXyoSN7c7r9XEhY-76" style="edgeStyle=orthogonalEdgeStyle;rounded=0;orthogonalLoop=1;jettySize=auto;html=1;endArrow=block;endFill=0;" edge="1" parent="1" source="OsBLbfXyoSN7c7r9XEhY-63">
          <mxGeometry relative="1" as="geometry">
            <mxPoint x="40" y="420" as="targetPoint" />
          </mxGeometry>
        </mxCell>
        <mxCell id="OsBLbfXyoSN7c7r9XEhY-63" value="DQ_SerialManipulator" style="swimlane;fontStyle=2;align=center;verticalAlign=top;childLayout=stackLayout;horizontal=1;startSize=26;horizontalStack=0;resizeParent=1;resizeLast=0;collapsible=1;marginBottom=0;rounded=0;shadow=0;strokeWidth=1;fillColor=#d5e8d4;gradientColor=#97d077;strokeColor=#82b366;" vertex="1" parent="1">
          <mxGeometry x="-40" y="480" width="450" height="80" as="geometry">
            <mxRectangle x="230" y="140" width="160" height="26" as="alternateBounds" />
          </mxGeometry>
        </mxCell>
        <mxCell id="OsBLbfXyoSN7c7r9XEhY-68" value="" style="line;html=1;strokeWidth=1;align=left;verticalAlign=middle;spacingTop=-1;spacingLeft=3;spacingRight=3;rotatable=0;labelPosition=right;points=[];portConstraint=eastwest;" vertex="1" parent="OsBLbfXyoSN7c7r9XEhY-63">
          <mxGeometry y="26" width="450" height="8" as="geometry" />
        </mxCell>
        <mxCell id="OsBLbfXyoSN7c7r9XEhY-74" value="+ set_inertial_parameters(inertia_tensors, center_of_masses, masses)" style="text;align=left;verticalAlign=top;spacingLeft=4;spacingRight=4;overflow=hidden;rotatable=0;points=[[0,0.5],[1,0.5]];portConstraint=eastwest;fontFamily=Verdana;fontStyle=0;spacingTop=0;" vertex="1" parent="OsBLbfXyoSN7c7r9XEhY-63">
          <mxGeometry y="34" width="450" height="26" as="geometry" />
        </mxCell>
        <mxCell id="OsBLbfXyoSN7c7r9XEhY-80" style="edgeStyle=orthogonalEdgeStyle;rounded=0;orthogonalLoop=1;jettySize=auto;html=1;exitX=0.5;exitY=0;exitDx=0;exitDy=0;entryX=0.5;entryY=1;entryDx=0;entryDy=0;endArrow=block;endFill=0;" edge="1" parent="1" source="OsBLbfXyoSN7c7r9XEhY-77" target="OsBLbfXyoSN7c7r9XEhY-63">
          <mxGeometry relative="1" as="geometry" />
        </mxCell>
        <mxCell id="OsBLbfXyoSN7c7r9XEhY-77" value="DQ_SerialManipulatorDH" style="swimlane;fontStyle=0;align=center;verticalAlign=top;childLayout=stackLayout;horizontal=1;startSize=26;horizontalStack=0;resizeParent=1;resizeLast=0;collapsible=1;marginBottom=0;rounded=0;shadow=0;strokeWidth=1;fillColor=#d5e8d4;gradientColor=#97d077;strokeColor=#82b366;" vertex="1" parent="1">
          <mxGeometry x="-90" y="610" width="550" height="80" as="geometry">
            <mxRectangle x="230" y="140" width="160" height="26" as="alternateBounds" />
          </mxGeometry>
        </mxCell>
        <mxCell id="OsBLbfXyoSN7c7r9XEhY-78" value="" style="line;html=1;strokeWidth=1;align=left;verticalAlign=middle;spacingTop=-1;spacingLeft=3;spacingRight=3;rotatable=0;labelPosition=right;points=[];portConstraint=eastwest;" vertex="1" parent="OsBLbfXyoSN7c7r9XEhY-77">
          <mxGeometry y="26" width="550" height="8" as="geometry" />
        </mxCell>
        <mxCell id="OsBLbfXyoSN7c7r9XEhY-79" value="DQ_SerialManipulatorDH(dh_matrix,Â inertia_tensors,Â center_of_masses, masses)" style="text;align=left;verticalAlign=top;spacingLeft=4;spacingRight=4;overflow=hidden;rotatable=0;points=[[0,0.5],[1,0.5]];portConstraint=eastwest;fontFamily=Verdana;fontStyle=0;spacingTop=0;" vertex="1" parent="OsBLbfXyoSN7c7r9XEhY-77">
          <mxGeometry y="34" width="550" height="26" as="geometry" />
        </mxCell>
        <mxCell id="OsBLbfXyoSN7c7r9XEhY-84" value="&lt;font face=&quot;Lucida Console&quot; style=&quot;font-size: 20px;&quot;&gt;gplc = DQ_SerialManipulatorDynamicsGaussPrincipleSolver(robot);&lt;/font&gt;&lt;div&gt;&lt;font face=&quot;Lucida Console&quot; style=&quot;font-size: 20px;&quot;&gt;gplc.compute_torques(q, q_dot, q_dot_dot)&lt;/font&gt;&lt;/div&gt;" style="rounded=0;whiteSpace=wrap;html=1;align=left;" vertex="1" parent="1">
          <mxGeometry x="700" y="560" width="580" height="110" as="geometry" />
        </mxCell>
      </root>
    </mxGraphModel>
  </diagram>
</mxfile>
